<svg width="159.000000" height="25.215942" viewBox="0 0 159 25.2159" fill="none" xmlns="http://www.w3.org/2000/svg" xmlns:xlink="http://www.w3.org/1999/xlink">
	<desc>
			Created with Pixso.
	</desc>
	<defs/>
	<path id="Vector" d="M2.32 21.28C1.01 21.28 0 20.3 0 19.13L0 2.41C0 1.19 1.07 0.26 2.32 0.26L7.35 0.26C11.81 0.26 14.04 3.13 14.04 6.11C14.04 8.19 12.7 9.47 10.92 10.34C12.76 11.08 14.61 12.43 14.61 15.02C14.61 18.51 11.81 21.28 7.23 21.28L2.32 21.28L2.32 21.28ZM7.58 8.49C8.63 8.49 9.88 7.78 9.88 6.17C9.88 5.03 9.34 4.02 7.79 4.02L4.16 4.02L4.16 8.49L7.58 8.49L7.58 8.49ZM4.16 12.31L4.16 17.49L7.49 17.49C9.46 17.49 10.44 16.51 10.44 14.96C10.44 13.26 9.25 12.31 7.67 12.31L4.16 12.31Z" fill="#000000" fill-opacity="1.000000" fill-rule="nonzero"/>
	<path id="Vector" d="M32.46 21.28L24.58 21.28C23.12 21.28 21.81 20.77 21.81 19.16L21.81 2.38C21.81 1.34 22.79 0.26 24.1 0.26L32.16 0.26C33.3 0.26 34.25 1.16 34.25 2.2C34.25 3.27 33.3 4.05 32.16 4.05L25.97 4.05L25.97 8.85L31.6 8.85C32.64 8.85 33.65 9.65 33.65 10.73C33.65 11.8 32.76 12.63 31.6 12.63L25.97 12.63L25.97 17.49L32.46 17.49C33.56 17.49 34.55 18.33 34.55 19.34C34.55 20.42 33.59 21.28 32.46 21.28Z" fill="#000000" fill-opacity="1.000000" fill-rule="nonzero"/>
	<path id="Vector" d="M50.5 14.27C50.5 18.8 48.89 21.55 43.59 21.55C42.46 21.55 40.17 21.43 40.17 19.49C40.17 18.3 41.27 17.61 42.1 17.61C42.79 17.61 43.17 17.79 43.92 17.79C45.91 17.79 46.33 16.45 46.33 14.27L46.33 1.9C46.33 0.86 47.22 0 48.41 0C49.51 0 50.5 0.89 50.5 1.9L50.5 14.27Z" fill="#000000" fill-opacity="1.000000" fill-rule="nonzero"/>
	<path id="Vector" d="M99.39 19.67C99.39 20.68 98.44 21.55 97.34 21.55C96.2 21.55 95.22 20.68 95.22 19.67L95.22 9.41L91.83 16.09C91.44 16.87 90.7 17.22 89.87 17.22C89.06 17.22 88.32 16.87 87.93 16.09L84.54 9.41L84.54 19.67C84.54 20.68 83.56 21.55 82.4 21.55C81.26 21.55 80.37 20.68 80.37 19.67L80.37 1.96C80.37 0.83 81.29 0 82.51 0C83.47 0 84.21 0.38 84.6 1.16L89.9 11.68L95.19 1.13C95.61 0.26 96.41 0 97.25 0C98.47 0 99.39 0.89 99.39 1.96L99.39 19.67Z" fill="#000000" fill-opacity="1.000000" fill-rule="nonzero"/>
	<path id="Vector" d="M122.9 18.98L117.09 2.02C116.68 0.83 116.08 0 114.65 0C113.23 0 112.63 0.86 112.24 2.02L106.44 18.98C106.38 19.13 106.35 19.49 106.35 19.64C106.35 20.77 107.33 21.55 108.49 21.55C109.21 21.55 110.16 21.01 110.46 20.15C110.46 20.15 114.53 6.64 114.65 5.72C114.77 6.64 118.82 20.15 118.82 20.15C119.12 20.98 120.07 21.55 120.84 21.55C122.06 21.55 122.99 20.77 122.99 19.64C122.99 19.49 122.96 19.13 122.9 18.98Z" fill="#000000" fill-opacity="1.000000" fill-rule="nonzero"/>
	<path id="Vector" d="M73.59 18.98L67.79 2.02C67.37 0.83 66.77 0 65.35 0C63.92 0 63.32 0.86 62.93 2.02L57.13 18.98C57.07 19.13 57.04 19.49 57.04 19.64C57.04 20.77 58.02 21.55 59.18 21.55C59.9 21.55 60.85 21.01 61.15 20.15C61.15 20.15 65.23 6.64 65.35 5.72C65.46 6.64 69.51 20.15 69.51 20.15C69.81 20.98 70.76 21.55 71.54 21.55C72.75 21.55 73.68 20.77 73.68 19.64C73.68 19.49 73.65 19.13 73.59 18.98Z" fill="#000000" fill-opacity="1.000000" fill-rule="nonzero"/>
	<path id="Vector" d="M137.81 13.17C137.18 12.9 136.44 12.63 135.63 12.37C132.72 11.47 129.56 10.49 129.56 6.17C129.56 2.32 132.24 0 136.47 0C138.22 0 142.45 0.44 142.45 2.68C142.45 3.66 141.67 4.56 140.37 4.56C139.83 4.56 139.41 4.38 138.91 4.23C138.34 4.02 137.69 3.78 136.64 3.78C135.19 3.78 133.82 4.29 133.82 6.05C133.82 7.36 134.56 7.81 135.07 8.04C135.84 8.43 136.56 8.67 137.21 8.85C140.13 9.77 143.31 10.79 143.31 15.02C143.31 19.16 140.16 21.55 135.9 21.55C133.7 21.55 129.53 20.77 129.53 18.69C129.53 17.73 130.39 16.81 131.5 16.81C131.94 16.81 132.42 16.96 132.98 17.17C133.7 17.4 134.65 17.76 135.93 17.76C137.98 17.76 139.03 16.84 139.03 15.2C139.03 13.86 138.34 13.41 137.81 13.17Z" fill="#000000" fill-opacity="1.000000" fill-rule="nonzero"/>
	<path id="Vector" d="M156.94 21.43C157.98 21.43 159 22.26 159 23.33C159 24.41 158.1 25.21 156.94 25.21L149.02 25.21C147.86 25.21 146.96 24.41 146.96 23.33C146.96 22.26 147.98 21.43 149.02 21.43L156.94 21.43Z" fill="#000000" fill-opacity="1.000000" fill-rule="nonzero"/>
</svg>
